<?xml version="1.0" encoding="utf-8"?>
<!-- Generated by Mocodo 4.1.2 -->
<svg width="325" height="281" viewBox="0 0 325 281" xmlns="http://www.w3.org/2000/svg">
<rect x="0" y="0" width="325" height="281" fill="#f7f7f7" stroke="none" stroke-width="0"/>

<!-- Association HAS -->
<g>
	<line x1="60" y1="77" x2="167" y2="77" stroke="#8073ac" stroke-width="2"/>
	<line x1="267" y1="77" x2="167" y2="77" stroke="#8073ac" stroke-width="2"/>
	<g>
		<path d="M172 52 a14 14 90 0 1 14 14 V77 h-38 V66 a14 14 90 0 1 14 -14" fill="#b2abd2" stroke="#b2abd2" stroke-width="0"/>
		<path d="M186 77 v11 a14 14 90 0 1 -14 14 H162 a14 14 90 0 1 -14 -14 V77 H38" fill="#d8daeb" stroke="#d8daeb" stroke-width="0"/>
		<rect x="148" y="52" width="38" height="50" fill="none" rx="14" stroke="#8073ac" stroke-width="2"/>
		<line x1="148" y1="77" x2="186" y2="77" stroke="#8073ac" stroke-width="1"/>
		<text x="156" y="69.75" fill="#000000" font-family="Verdana" font-size="12">Has</text>
	</g>
	<text x="105" y="69" fill="#b35806" font-family="Verdana" font-size="12">0,1</text>
	<text x="192" y="94" fill="#b35806" font-family="Verdana" font-size="12">0,1</text>
</g>

<!-- Association OWNS -->
<g>
	<line x1="60" y1="77" x2="167" y2="221" stroke="#8073ac" stroke-width="2"/>
	<line x1="60" y1="221" x2="167" y2="221" stroke="#8073ac" stroke-width="2"/>
	<g>
		<path d="M177 196 a14 14 90 0 1 14 14 V221 h-48 V210 a14 14 90 0 1 14 -14" fill="#b2abd2" stroke="#b2abd2" stroke-width="0"/>
		<path d="M191 221 v11 a14 14 90 0 1 -14 14 H157 a14 14 90 0 1 -14 -14 V221 H48" fill="#d8daeb" stroke="#d8daeb" stroke-width="0"/>
		<rect x="143" y="196" width="48" height="50" fill="none" rx="14" stroke="#8073ac" stroke-width="2"/>
		<line x1="143" y1="221" x2="191" y2="221" stroke="#8073ac" stroke-width="1"/>
		<text x="150" y="213.75" fill="#000000" font-family="Verdana" font-size="12">Owns</text>
	</g>
	<text x="105" y="128.44" fill="#b35806" font-family="Verdana" font-size="12">0,1</text>
	<text x="116" y="238" fill="#b35806" font-family="Verdana" font-size="12">0,N</text>
</g>

<!-- Entity PODCASTS -->
<g>
	<g>
		<rect x="20" y="9" width="80" height="25" fill="#fdb863" stroke="none" stroke-width="0" opacity="1"/>
		<rect x="20" y="34" width="80" height="111" fill="#fee0b6" stroke="none" stroke-width="0" opacity="1"/>
		<rect x="20" y="9" width="80" height="136" fill="none" stroke="#e08214" stroke-width="2" opacity="1"/>
		<line x1="20" y1="34" x2="100" y2="34" stroke="#e08214" stroke-width="1"/>
	</g>
	<text x="33" y="26.75" fill="#000000" font-family="Verdana" font-size="12">Podcasts</text>
	<text x="25" y="51.8" fill="#000000" font-family="Verdana" font-size="12">num_pod</text>
	<line x1="25" y1="54" x2="83" y2="54" stroke="#000000" stroke-width="1"/>
	<text x="25" y="68.8" fill="#000000" font-family="Verdana" font-size="12">descri</text>
	<text x="25" y="85.8" fill="#000000" font-family="Verdana" font-size="12">excerpt</text>
	<text x="25" y="102.8" fill="#000000" font-family="Verdana" font-size="12">link</text>
	<text x="25" y="119.8" fill="#000000" font-family="Verdana" font-size="12">created_at</text>
	<text x="25" y="136.8" fill="#000000" font-family="Verdana" font-size="12">updated_at</text>
</g>

<!-- Entity CATEGORIES -->
<g>
	<g>
		<rect x="218" y="26" width="98" height="25" fill="#fdb863" stroke="none" stroke-width="0" opacity="1"/>
		<rect x="218" y="51" width="98" height="77" fill="#fee0b6" stroke="none" stroke-width="0" opacity="1"/>
		<rect x="218" y="26" width="98" height="102" fill="none" stroke="#e08214" stroke-width="2" opacity="1"/>
		<line x1="218" y1="51" x2="316" y2="51" stroke="#e08214" stroke-width="1"/>
	</g>
	<text x="235" y="43.75" fill="#000000" font-family="Verdana" font-size="12">Categories</text>
	<text x="223" y="68.8" fill="#000000" font-family="Verdana" font-size="12">num_category</text>
	<line x1="223" y1="71" x2="311" y2="71" stroke="#000000" stroke-width="1"/>
	<text x="223" y="85.8" fill="#000000" font-family="Verdana" font-size="12">name</text>
	<text x="223" y="102.8" fill="#000000" font-family="Verdana" font-size="12">created_at</text>
	<text x="223" y="119.8" fill="#000000" font-family="Verdana" font-size="12">updated_at</text>
</g>

<!-- Entity COMMENTS -->
<g>
	<g>
		<rect x="9" y="170" width="102" height="25" fill="#fdb863" stroke="none" stroke-width="0" opacity="1"/>
		<rect x="9" y="195" width="102" height="77" fill="#fee0b6" stroke="none" stroke-width="0" opacity="1"/>
		<rect x="9" y="170" width="102" height="102" fill="none" stroke="#e08214" stroke-width="2" opacity="1"/>
		<line x1="9" y1="195" x2="111" y2="195" stroke="#e08214" stroke-width="1"/>
	</g>
	<text x="27" y="187.75" fill="#000000" font-family="Verdana" font-size="12">Comments</text>
	<text x="14" y="212.8" fill="#000000" font-family="Verdana" font-size="12">num_comment</text>
	<line x1="14" y1="215" x2="106" y2="215" stroke="#000000" stroke-width="1"/>
	<text x="14" y="229.8" fill="#000000" font-family="Verdana" font-size="12">content</text>
	<text x="14" y="246.8" fill="#000000" font-family="Verdana" font-size="12">created_at</text>
	<text x="14" y="263.8" fill="#000000" font-family="Verdana" font-size="12">updated_at</text>
</g>
</svg>